<svg id="Layer_1" data-name="Layer 1" xmlns="http://www.w3.org/2000/svg" viewBox="0 0 72.9 55.35"><defs><style>.cls-1{fill:#d2e5b3;}.cls-2{fill:none;stroke:#000;stroke-miterlimit:10;stroke-width:0.9px;opacity:0;}.cls-3{fill:#3d4752;}</style></defs><title>flowchart-symbols</title><path class="cls-1" d="M.45.45h72v54c-12-9-19.49-9-24-9-7.2,0-16.83,9-24,9-4.5,0-12,0-24-9Z"/><path class="cls-2" d="M.45.45h72v54c-12-9-19.49-9-24-9-7.2,0-16.83,9-24,9-4.5,0-12,0-24-9Z"/><path class="cls-3" d="M21.82,22.65c0-1.46-.95-2.13-2.4-2.17h-1v4.33h1c1.44,0,2.4-.72,2.4-2.16m-2.24-2.87c1.84.09,3.09,1,3.09,2.87a2.67,2.67,0,0,1-2,2.69,12,12,0,0,1-3.07.18V19.78Z"/><path class="cls-3" d="M25.55,25a1.24,1.24,0,0,0,1.28-1.39,1.28,1.28,0,1,0-2.56,0A1.24,1.24,0,0,0,25.55,25m0-3.41a1.9,1.9,0,0,1,2.07,2,1.91,1.91,0,0,1-2.07,2,1.9,1.9,0,0,1-2.07-2A1.89,1.89,0,0,1,25.55,21.57Z"/><path class="cls-3" d="M28.43,23.6a1.88,1.88,0,0,1,2-2,1.82,1.82,0,0,1,1.44.63l-.55.45a1.05,1.05,0,0,0-.88-.44,1.24,1.24,0,0,0-1.26,1.39A1.24,1.24,0,0,0,30.5,25a1.1,1.1,0,0,0,.92-.42l.51.46a1.77,1.77,0,0,1-1.43.6,1.9,1.9,0,0,1-2.07-2"/><path class="cls-3" d="M36.08,21.68c0,1.28,0,2.61,0,3.84h-.72c0-.16,0-.49,0-.63a1.41,1.41,0,0,1-1.26.74,1.36,1.36,0,0,1-1.43-1.56V21.68h.76V23.8c0,.68.19,1.18.87,1.18s1-.57,1-1.26v-2h.76"/><path class="cls-3" d="M38.14,22.31a1.34,1.34,0,0,1,1.22-.74,1.2,1.2,0,0,1,1.19.77,1.41,1.41,0,0,1,1.3-.77c1,0,1.43.61,1.43,1.56v2.38h-.76V23.38c0-.66-.19-1.17-.85-1.17-1.39,0-.87,2-1,3.3h-.76V23.23c0-.61-.21-1-.81-1s-1,.58-1,1.26v2H37.4c0-1.28,0-2.61,0-3.84h.72c0,.16,0,.45,0,.63h0"/><path class="cls-3" d="M46.31,21.57c1.3,0,1.9.87,1.84,2.25h-3A1.2,1.2,0,0,0,46.36,25a1.28,1.28,0,0,0,1.12-.58l.53.43a1.92,1.92,0,0,1-1.65.79,1.86,1.86,0,0,1-2-2,1.86,1.86,0,0,1,2-2m1.08,1.68a1.07,1.07,0,0,0-1.54-1,1.12,1.12,0,0,0-.75,1Z"/><path class="cls-3" d="M49.22,25.52c0-1.28,0-2.61,0-3.84h.72c0,.16,0,.45,0,.63h0a1.34,1.34,0,0,1,1.25-.74c1,0,1.43.61,1.43,1.56v2.38h-.76V23.38c0-.68-.19-1.17-.87-1.17s-1,.57-1,1.26v2h-.76"/><path class="cls-3" d="M55.5,25.52c-.75,0-1.13-.43-1.12-1.2V22.23h-.74v-.62h.74v-1.1h.75v1.1h1v.62h-1v2c0,.44.13.64.54.65a1.09,1.09,0,0,0,.45-.1l0,.62a1.94,1.94,0,0,1-.65.11"/></svg>