<svg id="Layer_1" data-name="Layer 1" xmlns="http://www.w3.org/2000/svg" viewBox="0 0 72.9 54.9"><defs><style>.cls-1{fill:#d2e5b3;}.cls-2,.cls-3{fill:none;stroke-miterlimit:10;}.cls-2{stroke:#000;stroke-width:0.9px;opacity:0;}.cls-3{stroke:#fff;}.cls-4{fill:#3d4752;}</style></defs><title>flowchart-symbols</title><rect class="cls-1" x="0.45" y="0.45" width="72" height="54"/><rect class="cls-2" x="0.45" y="0.45" width="72" height="54"/><path class="cls-3" d="M65.25.45v54M7.65.45v54"/><path class="cls-4" d="M19.75,20.3c0-1-1.15-.92-2.19-.92v1.85c1,0,2.19.09,2.19-.94m.81,0c0,1.51-1.39,1.69-3,1.62v2.52h-.8V18.7h1.75C19.7,18.72,20.56,19.11,20.56,20.3Z"/><path class="cls-4" d="M21.17,24.43c0-1.28,0-2.61,0-3.84h.72c0,.16,0,.48,0,.65h0a1.3,1.3,0,0,1,1.47-.72l0,.7a1.1,1.1,0,0,0-1.43,1.19v2h-.76"/><path class="cls-4" d="M25.69,20.49c1.3,0,1.9.87,1.84,2.25h-3a1.2,1.2,0,0,0,1.25,1.17,1.28,1.28,0,0,0,1.12-.58l.53.43a1.92,1.92,0,0,1-1.65.79,1.86,1.86,0,0,1-2-2,1.86,1.86,0,0,1,2-2m1.08,1.68a1.07,1.07,0,0,0-1.54-1,1.12,1.12,0,0,0-.75,1Z"/><path class="cls-4" d="M30.4,21.12a1.23,1.23,0,0,0-1.27,1.39A1.23,1.23,0,0,0,30.4,23.9a1.25,1.25,0,0,0,1.3-1.39,1.26,1.26,0,0,0-1.3-1.39m-.14-.63a1.7,1.7,0,0,1,1.39.68V18.31h.76v6.12h-.74a3.73,3.73,0,0,0,0-.61,1.6,1.6,0,0,1-1.39.71,1.84,1.84,0,0,1-1.94-2A1.86,1.86,0,0,1,30.26,20.49Z"/><path class="cls-4" d="M35.47,20.49c1.3,0,1.9.87,1.84,2.25h-3a1.2,1.2,0,0,0,1.25,1.17,1.28,1.28,0,0,0,1.12-.58l.53.43a1.92,1.92,0,0,1-1.65.79,1.86,1.86,0,0,1-2-2,1.86,1.86,0,0,1,2-2m1.08,1.68a1.07,1.07,0,0,0-1.54-1,1.12,1.12,0,0,0-.75,1Z"/><path class="cls-4" d="M40,18.87c-.83,0-.66.93-.68,1.73h.89v.62H39.3v3.22h-.76V21.22h-.76V20.6h.76v-.8c0-1.16.74-1.77,1.91-1.52l-.09.66a1.34,1.34,0,0,0-.38-.06"/><path class="cls-4" d="M41.28,18.72a.5.5,0,0,1,.51.49.51.51,0,1,1-.51-.49m.38,5.72H40.9V20.6h.76v3.84Z"/><path class="cls-4" d="M43,24.43c0-1.28,0-2.61,0-3.84h.72c0,.16,0,.45,0,.63h0A1.34,1.34,0,0,1,45,20.49c1,0,1.43.61,1.43,1.56v2.38h-.76V22.3c0-.68-.19-1.17-.87-1.17s-1,.57-1,1.26v2H43"/><path class="cls-4" d="M49.44,20.49c1.3,0,1.9.87,1.84,2.25h-3a1.2,1.2,0,0,0,1.25,1.17,1.28,1.28,0,0,0,1.12-.58l.53.43a1.92,1.92,0,0,1-1.65.79,1.86,1.86,0,0,1-2-2,1.86,1.86,0,0,1,2-2m1.08,1.68a1.07,1.07,0,0,0-1.54-1,1.12,1.12,0,0,0-.75,1Z"/><path class="cls-4" d="M54.15,21.12a1.23,1.23,0,0,0-1.27,1.39,1.23,1.23,0,0,0,1.27,1.39,1.25,1.25,0,0,0,1.3-1.39,1.26,1.26,0,0,0-1.3-1.39M54,20.49a1.7,1.7,0,0,1,1.39.68V18.31h.76v6.12h-.74a3.73,3.73,0,0,0,0-.61,1.6,1.6,0,0,1-1.39.71,1.84,1.84,0,0,1-1.94-2A1.86,1.86,0,0,1,54,20.49Z"/><path class="cls-4" d="M26.1,31.37c0-1-1.15-.92-2.19-.92v1.85c1,0,2.19.09,2.19-.94m.81,0c0,1.51-1.39,1.69-3,1.62V35.5h-.8V29.77h1.75C26,29.79,26.91,30.18,26.91,31.37Z"/><path class="cls-4" d="M27.51,35.5c0-1.28,0-2.61,0-3.84h.72c0,.16,0,.48,0,.65h0a1.3,1.3,0,0,1,1.47-.72l0,.7a1.1,1.1,0,0,0-1.43,1.19v2h-.76"/><path class="cls-4" d="M32.11,35a1.39,1.39,0,1,0-1.28-1.39A1.24,1.24,0,0,0,32.11,35m0-3.41a2,2,0,1,1,0,4,2,2,0,1,1,0-4Z"/><path class="cls-4" d="M35,33.59a1.88,1.88,0,0,1,2-2,1.82,1.82,0,0,1,1.44.63l-.55.45A1.05,1.05,0,0,0,37,32.2a1.39,1.39,0,0,0,0,2.77,1.1,1.1,0,0,0,.92-.42l.51.46a1.77,1.77,0,0,1-1.43.6,1.9,1.9,0,0,1-2.07-2"/><path class="cls-4" d="M41,31.56c1.3,0,1.9.87,1.84,2.25h-3A1.2,1.2,0,0,0,41,35a1.28,1.28,0,0,0,1.12-.58l.53.43a1.92,1.92,0,0,1-1.65.79,2,2,0,0,1,0-4m1.08,1.68a1.07,1.07,0,0,0-1.54-1,1.12,1.12,0,0,0-.75,1Z"/><path class="cls-4" d="M43.75,33.19c-.5-1.26.95-2,2.14-1.47a1.3,1.3,0,0,1,.6.47l-.53.45a1,1,0,0,0-.89-.48c-.38,0-.71.12-.71.5,0,.59.92.51,1.39.73a1.08,1.08,0,0,1,.78,1c.06,1.56-2.45,1.51-3.08.55l.54-.46A1.24,1.24,0,0,0,45,35c.42,0,.76-.14.76-.56,0-.73-1.27-.51-1.76-.95a.84.84,0,0,1-.26-.3"/><path class="cls-4" d="M47.34,33.19c-.5-1.26.95-2,2.14-1.47a1.3,1.3,0,0,1,.6.47l-.53.45a1,1,0,0,0-.89-.48c-.38,0-.71.12-.71.5,0,.59.92.51,1.39.73a1.08,1.08,0,0,1,.78,1c.06,1.56-2.45,1.51-3.08.55l.54-.46a1.24,1.24,0,0,0,1,.53c.42,0,.76-.14.76-.56,0-.73-1.27-.51-1.76-.95a.84.84,0,0,1-.26-.3"/></svg>