<svg id="Layer_1" data-name="Layer 1" xmlns="http://www.w3.org/2000/svg" viewBox="0 0 73.17 54.9"><defs><style>.cls-1{fill:#d2e5b3;}.cls-2{fill:none;stroke:#000;stroke-miterlimit:10;stroke-width:0.9px;opacity:0;}.cls-3{fill:#3d4752;}</style></defs><title>flowchart-symbols</title><polygon class="cls-1" points="14.99 0.45 72.59 0.45 58.19 54.45 0.59 54.45 14.99 0.45"/><polygon class="cls-2" points="14.99 0.45 72.59 0.45 58.19 54.45 0.59 54.45 14.99 0.45"/><path class="cls-3" d="M32.67,27.15c0-1.46-.95-2.13-2.4-2.17h-1v4.33h1c1.44,0,2.4-.72,2.4-2.16m-2.24-2.87c1.84.09,3.09,1,3.09,2.87a2.67,2.67,0,0,1-2,2.69,12,12,0,0,1-3.07.18V24.28Z"/><path class="cls-3" d="M35.87,29.51A1.09,1.09,0,0,0,37,28.18c-.83,0-1.9,0-1.9.73,0,.44.35.59.79.6m-1.56-.58c0-1.24,1.4-1.26,2.67-1.3,0-.65-.35-.95-.95-.95a1.6,1.6,0,0,0-1.09.45l-.4-.49a2.26,2.26,0,0,1,1.57-.58,1.42,1.42,0,0,1,1.6,1.51A23.93,23.93,0,0,0,37.76,30h-.69a2.56,2.56,0,0,1-.06-.55h0a1.47,1.47,0,0,1-1.29.65C34.9,30.11,34.3,29.75,34.3,28.93Z"/><path class="cls-3" d="M40.12,30.08c-.75,0-1.13-.43-1.12-1.2V26.8h-.74v-.62H39v-1.1h.75v1.1h1v.62h-1v2c0,.44.13.64.54.65a1.09,1.09,0,0,0,.45-.1l0,.62a1.94,1.94,0,0,1-.65.11"/><path class="cls-3" d="M42.84,29.51a1.09,1.09,0,0,0,1.11-1.33c-.83,0-1.9,0-1.9.73,0,.44.35.59.79.6m-1.56-.58c0-1.24,1.4-1.26,2.67-1.3,0-.65-.35-.95-.95-.95a1.6,1.6,0,0,0-1.09.45l-.4-.49a2.26,2.26,0,0,1,1.57-.58,1.42,1.42,0,0,1,1.6,1.51A23.93,23.93,0,0,0,44.74,30H44a2.56,2.56,0,0,1-.06-.55h0a1.47,1.47,0,0,1-1.29.65C41.88,30.11,41.28,29.75,41.28,28.93Z"/></svg>