<svg id="Layer_1" data-name="Layer 1" xmlns="http://www.w3.org/2000/svg" viewBox="0 0 56.11 54.9"><defs><style>.cls-1{fill:#d2e5b3;}.cls-2,.cls-4{fill:none;stroke-miterlimit:10;}.cls-2{stroke:#000;stroke-width:0.9px;opacity:0;}.cls-3{fill:#3d4752;}.cls-4{stroke:#fff;}</style></defs><title>flowchart-symbols</title><path class="cls-1" d="M55,49.05c0,3-12.06,5.4-27,5.4S1,52,1,49.05V5.85c0-3,12.1-5.4,27-5.4s27,2.38,27,5.4Z"/><path class="cls-2" d="M55,49.05c0,3-12.06,5.4-27,5.4S1,52,1,49.05V5.85c0-3,12.1-5.4,27-5.4s27,2.38,27,5.4Z"/><path class="cls-3" d="M15.17,32.5c0-1.46-.95-2.13-2.4-2.17h-1v4.33h1c1.44,0,2.4-.72,2.4-2.16m-2.24-2.87c1.84.09,3.09,1,3.09,2.87a2.67,2.67,0,0,1-2,2.69,12,12,0,0,1-3.07.18V29.64Z"/><path class="cls-3" d="M18.37,34.87a1.09,1.09,0,0,0,1.11-1.33c-.83,0-1.9,0-1.9.73,0,.44.35.59.79.6m-1.56-.58C16.8,33,18.2,33,19.48,33c0-.65-.35-.95-.95-.95a1.6,1.6,0,0,0-1.09.45L17,32a2.26,2.26,0,0,1,1.57-.58,1.42,1.42,0,0,1,1.6,1.51,23.93,23.93,0,0,0,.06,2.44h-.69a2.56,2.56,0,0,1-.06-.55h0a1.47,1.47,0,0,1-1.29.65C17.4,35.47,16.8,35.1,16.8,34.28Z"/><path class="cls-3" d="M22.62,35.43c-.75,0-1.13-.43-1.12-1.2V32.15h-.74v-.62h.74v-1.1h.75v1.1h1v.62h-1v2c0,.44.13.64.54.65a1.09,1.09,0,0,0,.45-.1l0,.62a1.94,1.94,0,0,1-.65.11"/><path class="cls-3" d="M25.34,34.87a1.09,1.09,0,0,0,1.11-1.33c-.83,0-1.9,0-1.9.73,0,.44.35.59.79.6m-1.56-.58c0-1.24,1.4-1.26,2.67-1.3,0-.65-.35-.95-.95-.95a1.6,1.6,0,0,0-1.09.45L24,32a2.26,2.26,0,0,1,1.57-.58,1.42,1.42,0,0,1,1.6,1.51,23.93,23.93,0,0,0,.06,2.44h-.69a2.56,2.56,0,0,1-.06-.55h0a1.47,1.47,0,0,1-1.29.65C24.38,35.47,23.78,35.1,23.78,34.28Z"/><path class="cls-3" d="M30.48,34.84a1.39,1.39,0,0,0,0-2.78,1.39,1.39,0,0,0,0,2.78m.13.64a1.62,1.62,0,0,1-1.39-.71h0v.61h-.74V29.25h.76v2.86h0a1.6,1.6,0,0,1,1.37-.68,1.85,1.85,0,0,1,1.92,2A1.84,1.84,0,0,1,30.61,35.48Z"/><path class="cls-3" d="M34.88,34.87A1.09,1.09,0,0,0,36,33.54c-.83,0-1.9,0-1.9.73,0,.44.35.59.79.6m-1.56-.58C33.32,33,34.72,33,36,33c0-.65-.35-.95-.95-.95a1.6,1.6,0,0,0-1.09.45l-.4-.49a2.26,2.26,0,0,1,1.57-.58,1.42,1.42,0,0,1,1.6,1.51,23.93,23.93,0,0,0,.06,2.44h-.69a2.56,2.56,0,0,1-.06-.55h0a1.47,1.47,0,0,1-1.29.65C33.92,35.47,33.32,35.1,33.32,34.28Z"/><path class="cls-3" d="M37.86,33.05c-.5-1.26.95-2,2.14-1.47a1.3,1.3,0,0,1,.6.47l-.53.45a1,1,0,0,0-.89-.48c-.38,0-.71.12-.71.5,0,.59.92.51,1.39.73a1.08,1.08,0,0,1,.78,1c.06,1.56-2.45,1.51-3.08.55l.54-.46a1.24,1.24,0,0,0,1,.53c.42,0,.76-.14.76-.56,0-.73-1.27-.51-1.76-.95a.84.84,0,0,1-.26-.3"/><path class="cls-3" d="M43.32,31.43c1.3,0,1.9.87,1.84,2.25h-3a1.2,1.2,0,0,0,1.25,1.17,1.28,1.28,0,0,0,1.12-.58l.53.43a1.92,1.92,0,0,1-1.65.79,1.86,1.86,0,0,1-2-2,1.86,1.86,0,0,1,2-2m1.08,1.68a1.07,1.07,0,0,0-1.54-1,1.12,1.12,0,0,0-.75,1Z"/><path class="cls-4" d="M55.61,5.85c0,3-12.72,5.4-27.66,5.4S.5,8.82.5,5.85"/></svg>